:FULLY-SPECIFIED
:DEGREES
1488
root 3.06189 16.5416 -3.6888 152.547 -96.6601 -147.105
lowerback 2.09918 0.476585 -2.7548
upperback 1.2004 0.576807 0.00185911
thorax 0.0264451 0.271377 1.53401
lowerneck -18.2077 1.08493 2.1575
upperneck 19.0032 0.948401 -0.613844
head 8.97925 0.503491 -0.448122
rclavicle -2.38542e-015 2.98177e-015
rhumerus -31.2377 -6.07639 -81.448
rradius 21.423
rwrist 29.939
rhand -26.8436 1.59921
rfingers 7.12502
rthumb -0.269041 -28.3804
lclavicle -2.38542e-015 2.98177e-015
lhumerus -27.233 5.24514 88.172
lradius 16.7619
lwrist -20.5986
lhand -25.6452 2.06769
lfingers 7.12502
lthumb 0.888413 32.0456
rfemur -21.424 -9.91442 18.9184
rtibia 67.844
rfoot -4.41844 -3.81243
rtoes -15.6169
lfemur -14.0012 -10.9089 -29.1923
ltibia 20.6556
lfoot -10.8534 7.37288
ltoes -0.797487
1489
root 3.06574 16.5864 -3.68986 153.01 -96.7532 -147.59
lowerback 2.1135 0.438561 -2.77656
upperback 1.24738 0.525599 0.0247322
thorax 0.0686186 0.24435 1.57085
lowerneck -18.2541 1.09696 2.18636
upperneck 19.1599 0.964562 -0.663779
head 9.04229 0.507105 -0.467979
rclavicle 3.18055e-015 1.98785e-016
rhumerus -31.1499 -6.12699 -81.4267
rradius 21.3967
rwrist 29.8265
rhand -26.7716 1.63422
rfingers 7.12502
rthumb -0.199471 -28.3454
lclavicle 3.18055e-015 1.98785e-016
lhumerus -26.9353 5.15714 88.274
lradius 16.9513
lwrist -20.5346
lhand -25.9737 2.12224
lfingers 7.12502
lthumb 0.571168 32.1012
rfemur -22.5352 -9.26266 19.0294
rtibia 68.1483
rfoot -5.36138 -5.52324
rtoes -14.8107
lfemur -13.3591 -11.0934 -29.2186
ltibia 20.3581
lfoot -11.1377 7.55263
ltoes -0.996891
1490
root 3.07492 16.5852 -3.69249 153.305 -96.8616 -147.953
lowerback 2.17888 0.404264 -2.80347
upperback 1.29139 0.477382 0.036187
thorax 0.0791506 0.219201 1.59844
lowerneck -18.2811 1.10238 2.17496
upperneck 19.3072 0.964377 -0.630693
head 9.09789 0.509304 -0.454958
rclavicle -4.77083e-015 5.76476e-015
rhumerus -31.0718 -6.18106 -81.3941
rradius 21.3164
rwrist 29.8517
rhand -26.7204 1.76981
rfingers 7.12502
rthumb -0.150067 -28.2099
lclavicle -4.77083e-015 5.76476e-015
lhumerus -26.6633 4.92624 88.4158
lradius 17.1682
lwrist -20.2419
lhand -26.1424 2.05911
lfingers 7.12502
lthumb 0.408229 32.0385
rfemur -23.6829 -8.89296 19.0632
rtibia 68.3434
rfoot -6.40727 -6.82202
rtoes -14.3618
lfemur -12.6841 -11.2227 -29.2868
ltibia 19.9678
lfoot -11.3063 7.62613
ltoes -1.27911
1491
root 3.08466 16.5834 -3.69491 153.527 -97.0336 -148.185
lowerback 2.2237 0.352201 -2.85933
upperback 1.31037 0.405453 0.0351825
thorax 0.076681 0.182632 1.63008
lowerneck -18.3356 1.09842 2.20507
upperneck 19.4765 0.95554 -0.671362
head 9.16661 0.502268 -0.475182
rclavicle -1.03368e-014 6.95746e-015
rhumerus -31.0084 -6.19189 -81.3824
rradius 21.2785
rwrist 29.8246
rhand -26.6411 1.86323
rfingers 7.12502
rthumb -0.0734239 -28.1165
lclavicle -1.03368e-014 6.95746e-015
lhumerus -26.43 4.56489 88.5998
lradius 17.4699
lwrist -19.8416
lhand -26.3319 2.18186
lfingers 7.12502
lthumb 0.225227 32.1615
rfemur -24.8189 -8.48048 19.0468
rtibia 68.2746
rfoot -7.48221 -7.93187
rtoes -13.4859
lfemur -12.0134 -11.3848 -29.3808
ltibia 19.49
lfoot -11.4718 7.66088
ltoes -1.10909
1492
root 3.09428 16.5793 -3.6993 153.824 -97.2647 -148.502
lowerback 2.3065 0.274169 -2.96172
upperback 1.31305 0.29653 0.0430373
thorax 0.0380343 0.12803 1.69761
lowerneck -18.3593 1.10603 2.24499
upperneck 19.634 0.961247 -0.715321
head 9.22612 0.502311 -0.496413
rclavicle 3.18055e-015 3.77691e-015
rhumerus -30.9865 -6.07413 -81.4109
rradius 21.2974
rwrist 29.7928
rhand -26.4281 1.79447
rfingers 7.12502
rthumb 0.132229 -28.1852
lclavicle 3.18055e-015 3.77691e-015
lhumerus -26.2582 4.24733 88.7758
lradius 17.8434
lwrist -19.3723
lhand -26.4115 2.13035
lfingers 7.12502
lthumb 0.148261 32.11
rfemur -25.8954 -8.07705 18.9982
rtibia 68.0194
rfoot -8.5815 -8.91275
rtoes -12.8272
lfemur -11.5604 -11.6115 -29.5024
ltibia 19.4578
lfoot -11.8128 7.76758
ltoes -1.29338
1493
root 3.10319 16.5726 -3.70331 154.289 -97.4368 -149.007
lowerback 2.40764 0.217083 -3.00339
upperback 1.33321 0.216133 0.0702871
thorax 0.00603072 0.0876082 1.75052
lowerneck -18.4395 1.10514 2.27295
upperneck 19.7855 0.962296 -0.776966
head 9.29386 0.497461 -0.522209
rclavicle -5.56597e-015 4.37326e-015
rhumerus -30.9506 -5.92209 -81.45
rradius 21.3376
rwrist 29.4836
rhand -26.2156 1.88284
rfingers 7.12502
rthumb 0.33755 -28.0966
lclavicle -5.56597e-015 4.37326e-015
lhumerus -26.1041 3.80177 89.0171
lradius 18.3124
lwrist -18.6587
lhand -26.2771 2.13162
lfingers 7.12502
lthumb 0.278098 32.1112
rfemur -26.8673 -7.53076 18.9882
rtibia 67.5224
rfoot -9.7079 -9.71241
rtoes -12.2848
lfemur -11.1341 -11.7506 -29.564
ltibia 19.5116
lfoot -12.2543 7.75506
ltoes -1.14293
1494
root 3.11172 16.5637 -3.71088 155.157 -97.5966 -149.898
lowerback 2.50979 0.159393 -3.02189
upperback 1.33661 0.135344 0.110462
thorax -0.0435108 0.0476377 1.8039
lowerneck -18.4434 1.11777 2.33198
upperneck 19.8368 0.977794 -0.845648
head 9.31339 0.501145 -0.553734
rclavicle -1.59028e-015 4.77083e-015
rhumerus -30.9603 -5.72953 -81.5162
rradius 21.4579
rwrist 29.2299
rhand -25.9417 1.89858
rfingers 7.12502
rthumb 0.602042 -28.0803
lclavicle -1.59028e-015 4.77083e-015
lhumerus -25.9863 3.31246 89.2604
lradius 18.8024
lwrist -17.9511
lhand -26.3461 2.07263
lfingers 7.12502
lthumb 0.211436 32.0523
rfemur -27.7833 -6.95247 19.0391
rtibia 66.7539
rfoot -10.6383 -10.4887
rtoes -11.9237
lfemur -10.7528 -11.9245 -29.5544
ltibia 19.6431
lfoot -12.7061 7.81429
ltoes -1.36123
1495
root 3.11935 16.5525 -3.71919 156.319 -97.7687 -151.088
lowerback 2.62002 0.0977349 -2.99652
upperback 1.35046 0.0500701 0.156197
thorax -0.0864482 0.00535784 1.83872
lowerneck -18.4755 1.11949 2.36829
upperneck 19.8617 0.978347 -0.886345
head 9.32833 0.499533 -0.573668
rclavicle 4.77083e-015 6.75868e-015
rhumerus -30.9782 -5.57699 -81.5666
rradius 21.6005
rwrist 29.0828
rhand -25.7294 1.93985
rfingers 7.12502
rthumb 0.80708 -28.0384
lclavicle 4.77083e-015 6.75868e-015
lhumerus -25.8677 2.80845 89.4767
lradius 19.2869
lwrist -17.379
lhand -26.3414 2.05992
lfingers 7.12502
lthumb 0.216042 32.0396
rfemur -28.5975 -6.39529 19.109
rtibia 65.7257
rfoot -11.5961 -10.9387
rtoes -12.3083
lfemur -10.4163 -11.9364 -29.5095
ltibia 19.8385
lfoot -13.1311 7.63739
ltoes -1.3415
1496
root 3.12592 16.5412 -3.7261 157.381 -97.9597 -152.126
lowerback 2.67773 0.0510511 -2.94355
upperback 1.35686 -0.0127687 0.179092
thorax -0.108846 -0.0256638 1.8342
lowerneck -18.5059 1.10015 2.42233
upperneck 19.8394 0.946191 -0.929775
head 9.32605 0.483967 -0.601712
rclavicle 1.43125e-014 -5.1684e-015
rhumerus -30.9996 -5.45333 -81.6311
rradius 21.7573
rwrist 28.8784
rhand -25.5493 1.95872
rfingers 7.12502
rthumb 0.981003 -28.0188
lclavicle 1.43125e-014 -5.1684e-015
lhumerus -25.7612 2.19006 89.7256
lradius 19.7896
lwrist -16.7417
lhand -26.3299 2.03369
lfingers 7.12502
lthumb 0.227075 32.0133
rfemur -29.3611 -5.83052 19.1454
rtibia 64.4293
rfoot -12.4921 -11.4481
rtoes -12.3371
lfemur -10.1423 -12.0233 -29.4678
ltibia 20.0667
lfoot -13.5523 7.59665
ltoes -1.79015
1497
root 3.13139 16.5354 -3.73555 158.442 -98.1543 -153.161
lowerback 2.77266 -0.0200767 -2.95787
upperback 1.34701 -0.110832 0.248113
thorax -0.16658 -0.0739474 1.91597
lowerneck -18.5104 1.08596 2.41398
upperneck 19.7776 0.940846 -0.975235
head 9.3053 0.47597 -0.616518
rclavicle -1.90833e-014 -7.55382e-015
rhumerus -31.0525 -5.27695 -81.6338
rradius 21.9327
rwrist 28.9148
rhand -25.421 1.97562
rfingers 7.12502
rthumb 1.10501 -28.0013
lclavicle -1.90833e-014 -7.55382e-015
lhumerus -25.696 1.6639 89.9841
lradius 20.2864
lwrist -16.0303
lhand -26.2594 1.92178
lfingers 7.12502
lthumb 0.295178 31.9013
rfemur -30.0102 -5.23732 19.1799
rtibia 62.8529
rfoot -13.2544 -11.8851
rtoes -12.7276
lfemur -9.85339 -12.094 -29.4085
ltibia 20.2662
lfoot -14.0078 7.55101
ltoes -2.07754
1498
root 3.13425 16.5246 -3.7441 160.058 -98.2838 -154.772
lowerback 2.84273 -0.0890431 -2.84189
upperback 1.36668 -0.201584 0.33847
thorax -0.180778 -0.119179 1.94641
lowerneck -18.5108 1.08572 2.42796
upperneck 19.6478 0.948161 -1.01453
head 9.26058 0.476605 -0.630959
rclavicle -1.11319e-014 -2.5842e-015
rhumerus -31.0551 -5.07813 -81.6967
rradius 22.0752
rwrist 28.7363
rhand -25.4391 1.94844
rfingers 7.12502
rthumb 1.08743 -28.0285
lclavicle -1.11319e-014 -2.5842e-015
lhumerus -25.6145 1.11727 90.2363
lradius 20.7721
lwrist -15.4222
lhand -26.357 1.92192
lfingers 7.12502
lthumb 0.200924 31.9016
rfemur -30.5512 -4.70895 19.3058
rtibia 61.0315
rfoot -13.9812 -12.2251
rtoes -13.3228
lfemur -9.50695 -12.0992 -29.2409
ltibia 20.4228
lfoot -14.5032 7.48256
ltoes -2.31673
